<svg xmlns="http://www.w3.org/2000/svg" viewBox="0 0 13.05 16"><defs><style>.cls-1{fill:#6d6d71;}</style></defs><title>csv-ico</title><g id="Layer_2" data-name="Layer 2"><g id="Layer_1-2" data-name="Layer 1"><path class="cls-1" d="M9.73,0H1.35A1.35,1.35,0,0,0,0,1.35v13.3A1.35,1.35,0,0,0,1.35,16H11.69A1.35,1.35,0,0,0,13,14.65V3.31ZM1.22,14.78V1.22H8.87v3h3v10.6Z"/><path class="cls-1" d="M3.74,11.09a1.1,1.1,0,0,1-.87-.33,1.39,1.39,0,0,1-.3-1,1.4,1.4,0,0,1,.31-1,1.15,1.15,0,0,1,.9-.34,1.69,1.69,0,0,1,.72.15l-.16.43a1.63,1.63,0,0,0-.56-.13q-.65,0-.65.87a1,1,0,0,0,.16.64.56.56,0,0,0,.48.21,1.36,1.36,0,0,0,.68-.18v.47a1.08,1.08,0,0,1-.31.12A1.83,1.83,0,0,1,3.74,11.09Z"/><path class="cls-1" d="M6.73,10.32a.66.66,0,0,1-.27.57,1.29,1.29,0,0,1-.77.2,1.81,1.81,0,0,1-.81-.15v-.46a2,2,0,0,0,.83.21q.49,0,.49-.3a.23.23,0,0,0-.05-.16A.64.64,0,0,0,6,10.09l-.35-.15A1.61,1.61,0,0,1,5,9.6a.62.62,0,0,1-.15-.44.57.57,0,0,1,.26-.5,1.24,1.24,0,0,1,.71-.18,2,2,0,0,1,.84.18l-.17.4a1.87,1.87,0,0,0-.69-.17q-.42,0-.42.24a.24.24,0,0,0,.11.2A2.43,2.43,0,0,0,6,9.56a2.2,2.2,0,0,1,.45.22.61.61,0,0,1,.28.54Z"/><path class="cls-1" d="M7.88,11l-1-2.52h.56L8,10a2.87,2.87,0,0,1,.16.6h0a4,4,0,0,1,.16-.6l.51-1.47h.57L8.46,11Z"/><path class="cls-1" d="M9.72,10.76a.35.35,0,0,1,.09-.25.4.4,0,0,1,.5,0,.35.35,0,0,1,.09.25.36.36,0,0,1-.09.26.33.33,0,0,1-.25.09A.32.32,0,0,1,9.81,11,.37.37,0,0,1,9.72,10.76Z"/></g></g></svg>