<svg xmlns="http://www.w3.org/2000/svg" viewBox="0 0 13.05 16"><defs><style>.cls-1{fill:#6d6d71;}</style></defs><title>doc-ico</title><g id="Layer_2" data-name="Layer 2"><g id="Layer_1-2" data-name="Layer 1"><path class="cls-1" d="M9.73,0H1.35A1.35,1.35,0,0,0,0,1.35v13.3A1.35,1.35,0,0,0,1.35,16H11.69A1.35,1.35,0,0,0,13,14.65V3.31ZM1.22,14.78V1.22H8.87v3h3v10.6Z"/><path class="cls-1" d="M3.24,11.09a.88.88,0,0,1-.74-.34,1.54,1.54,0,0,1-.26-1,1.54,1.54,0,0,1,.27-1,.89.89,0,0,1,.74-.34A.87.87,0,0,1,4,8.84H4a3.21,3.21,0,0,1,0-.43V7.5h.54V11H4.11L4,10.71H4A.86.86,0,0,1,3.24,11.09Zm.14-.43a.58.58,0,0,0,.48-.19A1,1,0,0,0,4,9.87V9.79a1.13,1.13,0,0,0-.16-.68.57.57,0,0,0-.49-.2.49.49,0,0,0-.44.23,1.18,1.18,0,0,0-.15.65,1.14,1.14,0,0,0,.15.64A.5.5,0,0,0,3.38,10.65Z"/><path class="cls-1" d="M7.53,9.78a1.37,1.37,0,0,1-.32,1,1.14,1.14,0,0,1-.88.35,1.21,1.21,0,0,1-.62-.16,1,1,0,0,1-.42-.46,1.56,1.56,0,0,1-.15-.69,1.37,1.37,0,0,1,.31-1,1.14,1.14,0,0,1,.89-.34,1.11,1.11,0,0,1,.87.35A1.36,1.36,0,0,1,7.53,9.78Zm-1.83,0q0,.87.65.87T7,9.78q0-.86-.64-.86a.55.55,0,0,0-.49.22A1.14,1.14,0,0,0,5.7,9.78Z"/><path class="cls-1" d="M9.17,11.09a1.1,1.1,0,0,1-.87-.33,1.39,1.39,0,0,1-.3-1,1.4,1.4,0,0,1,.31-1,1.15,1.15,0,0,1,.9-.34,1.69,1.69,0,0,1,.72.15l-.16.43a1.63,1.63,0,0,0-.56-.13q-.65,0-.65.87a1,1,0,0,0,.16.64.56.56,0,0,0,.48.21,1.36,1.36,0,0,0,.68-.18v.47a1.08,1.08,0,0,1-.31.12A1.83,1.83,0,0,1,9.17,11.09Z"/><path class="cls-1" d="M10.38,10.76a.35.35,0,0,1,.09-.25.4.4,0,0,1,.5,0,.35.35,0,0,1,.09.25A.36.36,0,0,1,11,11a.33.33,0,0,1-.25.09.32.32,0,0,1-.25-.09A.37.37,0,0,1,10.38,10.76Z"/></g></g></svg>