<svg xmlns="http://www.w3.org/2000/svg" viewBox="0 0 13.05 16"><defs><style>.cls-1{fill:#6d6d71;}</style></defs><title>docx-ico</title><g id="Layer_2" data-name="Layer 2"><g id="Layer_1-2" data-name="Layer 1"><path class="cls-1" d="M9.73,0H1.35A1.35,1.35,0,0,0,0,1.35v13.3A1.35,1.35,0,0,0,1.35,16H11.69A1.35,1.35,0,0,0,13,14.65V3.31ZM1.22,14.78V1.22H8.87v3h3v10.6Z"/><path class="cls-1" d="M2.77,11.08a.7.7,0,0,1-.58-.27A1.22,1.22,0,0,1,2,10a1.22,1.22,0,0,1,.21-.77A.7.7,0,0,1,2.78,9a.69.69,0,0,1,.6.29h0a2.55,2.55,0,0,1,0-.34V8.23H3.8V11H3.47l-.07-.26h0A.68.68,0,0,1,2.77,11.08Zm.11-.34a.46.46,0,0,0,.38-.15.78.78,0,0,0,.12-.48v-.06a.9.9,0,0,0-.12-.54.46.46,0,0,0-.39-.16.39.39,0,0,0-.34.18.93.93,0,0,0-.12.52.91.91,0,0,0,.12.51A.4.4,0,0,0,2.89,10.74Z"/><path class="cls-1" d="M6.18,10a1.09,1.09,0,0,1-.25.76.9.9,0,0,1-.7.27,1,1,0,0,1-.5-.13.84.84,0,0,1-.33-.36A1.24,1.24,0,0,1,4.29,10a1.08,1.08,0,0,1,.25-.76A.9.9,0,0,1,5.24,9a.88.88,0,0,1,.69.28A1.07,1.07,0,0,1,6.18,10ZM4.72,10q0,.69.51.69T5.74,10q0-.68-.51-.68a.44.44,0,0,0-.39.18A.9.9,0,0,0,4.72,10Z"/><path class="cls-1" d="M7.47,11.08a.87.87,0,0,1-.69-.26,1.11,1.11,0,0,1-.24-.76,1.11,1.11,0,0,1,.25-.78A.92.92,0,0,1,7.51,9a1.34,1.34,0,0,1,.57.12l-.13.34a1.28,1.28,0,0,0-.44-.1q-.52,0-.52.69a.82.82,0,0,0,.13.5.45.45,0,0,0,.38.17A1.09,1.09,0,0,0,8,10.58V11a.81.81,0,0,1-.24.1A1.44,1.44,0,0,1,7.47,11.08Z"/><path class="cls-1" d="M8.94,10,8.27,9h.48l.46.7L9.67,9h.48l-.67,1,.71,1H9.7l-.49-.75L8.72,11H8.24Z"/><path class="cls-1" d="M10.47,10.82a.28.28,0,0,1,.07-.2.31.31,0,0,1,.4,0,.28.28,0,0,1,.07.2.29.29,0,0,1-.07.2.3.3,0,0,1-.4,0A.29.29,0,0,1,10.47,10.82Z"/></g></g></svg>