<svg xmlns="http://www.w3.org/2000/svg" viewBox="0 0 13.05 16"><defs><style>.cls-1{fill:#6d6d71;}</style></defs><title>jpg-ico</title><g id="Layer_2" data-name="Layer 2"><g id="Layer_1-2" data-name="Layer 1"><path class="cls-1" d="M9.73,0H1.35A1.35,1.35,0,0,0,0,1.35v13.3A1.35,1.35,0,0,0,1.35,16H11.69A1.35,1.35,0,0,0,13,14.65V3.31ZM1.22,14.78V1.22H8.87v3h3v10.6Z"/><path class="cls-1" d="M2.74,12.16a1.21,1.21,0,0,1-.4-.06v-.42a1.23,1.23,0,0,0,.32,0c.23,0,.34-.13.34-.39V8.52h.54v2.85a.79.79,0,0,1-.2.59A.8.8,0,0,1,2.74,12.16ZM3,7.85A.3.3,0,0,1,3,7.63a.3.3,0,0,1,.22-.08.27.27,0,0,1,.3.3.29.29,0,0,1-.08.21.3.3,0,0,1-.22.08A.3.3,0,0,1,3,8.07.29.29,0,0,1,3,7.85Z"/><path class="cls-1" d="M5.58,11.09a.88.88,0,0,1-.74-.34h0c0,.21,0,.34,0,.39v1H4.3V8.52h.43l.08.34h0a.84.84,0,0,1,.75-.38.87.87,0,0,1,.73.34,1.54,1.54,0,0,1,.26,1,1.54,1.54,0,0,1-.27,1A.88.88,0,0,1,5.58,11.09ZM5.45,8.91A.55.55,0,0,0,5,9.1a1,1,0,0,0-.15.6v.08a1.18,1.18,0,0,0,.15.67.54.54,0,0,0,.48.21.48.48,0,0,0,.43-.23A1.18,1.18,0,0,0,6,9.77a1.13,1.13,0,0,0-.15-.64A.5.5,0,0,0,5.45,8.91Z"/><path class="cls-1" d="M9.34,8.52v.29l-.43.08a.68.68,0,0,1,.1.2.77.77,0,0,1,0,.25.75.75,0,0,1-.27.61,1.12,1.12,0,0,1-.74.22l-.22,0a.3.3,0,0,0-.17.25.14.14,0,0,0,.08.13.7.7,0,0,0,.3,0h.44a1,1,0,0,1,.63.18.63.63,0,0,1,.22.51.75.75,0,0,1-.35.66,1.86,1.86,0,0,1-1,.23A1.4,1.4,0,0,1,7.15,12a.59.59,0,0,1-.27-.52A.55.55,0,0,1,7,11.07a.79.79,0,0,1,.41-.22.4.4,0,0,1-.18-.15.37.37,0,0,1-.07-.21.37.37,0,0,1,.08-.24.92.92,0,0,1,.24-.19.71.71,0,0,1-.32-.27.81.81,0,0,1-.12-.45.8.8,0,0,1,.26-.64,1.09,1.09,0,0,1,.74-.23h.22l.18,0Zm-2,2.91a.29.29,0,0,0,.16.27.86.86,0,0,0,.44.09,1.33,1.33,0,0,0,.65-.12.38.38,0,0,0,.21-.33.25.25,0,0,0-.12-.23A.93.93,0,0,0,8.26,11H7.86a.57.57,0,0,0-.37.11A.35.35,0,0,0,7.36,11.43Zm.23-2.1a.51.51,0,0,0,.12.36.46.46,0,0,0,.35.13q.46,0,.46-.5A.56.56,0,0,0,8.41,9a.43.43,0,0,0-.35-.13A.45.45,0,0,0,7.71,9,.56.56,0,0,0,7.59,9.34Z"/><path class="cls-1" d="M9.72,10.76a.35.35,0,0,1,.09-.25.4.4,0,0,1,.5,0,.35.35,0,0,1,.09.25.36.36,0,0,1-.09.26.33.33,0,0,1-.25.09A.32.32,0,0,1,9.81,11,.37.37,0,0,1,9.72,10.76Z"/></g></g></svg>