<svg xmlns="http://www.w3.org/2000/svg" viewBox="0 0 13.05 16"><defs><style>.cls-1{fill:#6d6d71;}</style></defs><title>key-ico</title><g id="Layer_2" data-name="Layer 2"><g id="Layer_1-2" data-name="Layer 1"><path class="cls-1" d="M9.73,0H1.35A1.36,1.36,0,0,0,0,1.35v13.3A1.36,1.36,0,0,0,1.35,16H11.69a1.36,1.36,0,0,0,1.36-1.35V3.31ZM1.22,14.78V1.22H8.87v3h3v10.6Z"/><path class="cls-1" d="M3.17,10.82a.33.33,0,0,1,.07-.21.3.3,0,0,1,.2-.07.26.26,0,0,1,.2.08.24.24,0,0,1,.07.2.27.27,0,0,1-.07.2.26.26,0,0,1-.2.07.26.26,0,0,1-.2-.07A.32.32,0,0,1,3.17,10.82Z"/><path class="cls-1" d="M4.66,10l.24-.3L5.51,9H6l-.81.86L6.05,11h-.5l-.64-.87-.24.19V11H4.25V8.23h.42V9.6l0,.39Z"/><path class="cls-1" d="M7.24,11.08a1,1,0,0,1-.73-.27,1.09,1.09,0,0,1-.26-.75,1.13,1.13,0,0,1,.24-.77A.85.85,0,0,1,7.16,9a.82.82,0,0,1,.63.24A.93.93,0,0,1,8,9.91v.23H6.69a.64.64,0,0,0,.15.45.57.57,0,0,0,.42.15,1.69,1.69,0,0,0,.33,0,1.82,1.82,0,0,0,.33-.11v.34a1.21,1.21,0,0,1-.32.11A1.86,1.86,0,0,1,7.24,11.08ZM7.16,9.33a.41.41,0,0,0-.32.13.63.63,0,0,0-.15.37H7.6a.51.51,0,0,0-.12-.37A.39.39,0,0,0,7.16,9.33Z"/><path class="cls-1" d="M8.2,9h.46l.41,1.14a2.16,2.16,0,0,1,.12.45h0a2.07,2.07,0,0,1,.06-.24c0-.09.18-.54.46-1.35h.46l-.85,2.27a.82.82,0,0,1-.78.62,1.33,1.33,0,0,1-.28,0v-.34a.78.78,0,0,0,.22,0,.44.44,0,0,0,.43-.36L9,11Z"/></g></g></svg>