<svg xmlns="http://www.w3.org/2000/svg" viewBox="0 0 13.05 16"><defs><style>.cls-1{fill:#6d6d71;}</style></defs><title>numbers-ico</title><g id="Layer_2" data-name="Layer 2"><g id="Layer_1-2" data-name="Layer 1"><path class="cls-1" d="M9.73,0H1.35A1.36,1.36,0,0,0,0,1.35v13.3A1.36,1.36,0,0,0,1.35,16H11.69a1.36,1.36,0,0,0,1.36-1.35V3.31ZM1.22,14.78V1.22H8.87v3h3v10.6Z"/><path class="cls-1" d="M2.17,10.82a.25.25,0,0,1,.27-.28.26.26,0,0,1,.2.08.3.3,0,0,1,.07.2.32.32,0,0,1-.07.2.27.27,0,0,1-.2.07.24.24,0,0,1-.2-.07A.27.27,0,0,1,2.17,10.82Z"/><path class="cls-1" d="M5,11H4.58V9.81a.53.53,0,0,0-.09-.34.35.35,0,0,0-.3-.12.47.47,0,0,0-.39.16.94.94,0,0,0-.12.54v1H3.25V9h.33l.06.27h0a.65.65,0,0,1,.26-.23A.87.87,0,0,1,4.29,9,.64.64,0,0,1,5,9.74Z"/><path class="cls-1" d="M7,11,7,10.78h0a.67.67,0,0,1-.25.22.92.92,0,0,1-.38.08.73.73,0,0,1-.54-.18.76.76,0,0,1-.18-.55V9H6v1.24a.55.55,0,0,0,.09.34.36.36,0,0,0,.3.12.47.47,0,0,0,.39-.16A.93.93,0,0,0,6.92,10V9h.42v2Z"/><path class="cls-1" d="M9.63,11H9.21V9.81a.53.53,0,0,0-.09-.34.32.32,0,0,0-.27-.12.41.41,0,0,0-.36.16.94.94,0,0,0-.12.54v1H8V9h.33l.06.27h0a.66.66,0,0,1,.24-.23A.81.81,0,0,1,9,9a.6.6,0,0,1,.61.31h0a.62.62,0,0,1,.25-.23A.87.87,0,0,1,10.21,9a.67.67,0,0,1,.52.18.79.79,0,0,1,.16.55V11h-.42V9.81a.53.53,0,0,0-.09-.34.32.32,0,0,0-.27-.12.41.41,0,0,0-.36.16.76.76,0,0,0-.12.47Z"/></g></g></svg>