<svg xmlns="http://www.w3.org/2000/svg" viewBox="0 0 13.05 16"><defs><style>.cls-1{fill:#6d6d71;}</style></defs><title>pages-ico</title><g id="Layer_2" data-name="Layer 2"><g id="Layer_1-2" data-name="Layer 1"><path class="cls-1" d="M9.73,0H1.35A1.36,1.36,0,0,0,0,1.35v13.3A1.36,1.36,0,0,0,1.35,16H11.69a1.36,1.36,0,0,0,1.36-1.35V3.31ZM1.22,14.78V1.22H8.87v3h3v10.6Z"/><path class="cls-1" d="M2,10.82A.28.28,0,0,1,2,10.61a.27.27,0,0,1,.19-.07.29.29,0,0,1,.21.08.3.3,0,0,1,.06.2.27.27,0,0,1-.07.2.25.25,0,0,1-.2.08A.24.24,0,0,1,2,11,.27.27,0,0,1,2,10.82Z"/><path class="cls-1" d="M4.06,11.08a.71.71,0,0,1-.59-.27h0c0,.16,0,.27,0,.3v.82H3.05V9h.34l.06.27h0a.67.67,0,0,1,.6-.3.69.69,0,0,1,.58.27,1.21,1.21,0,0,1,.21.76,1.21,1.21,0,0,1-.21.76A.69.69,0,0,1,4.06,11.08ZM4,9.35a.44.44,0,0,0-.37.15.77.77,0,0,0-.12.48V10a.92.92,0,0,0,.12.53.43.43,0,0,0,.38.16.39.39,0,0,0,.34-.18A1,1,0,0,0,4.42,10a1,1,0,0,0-.11-.51A.4.4,0,0,0,4,9.35Z"/><path class="cls-1" d="M6.6,11l-.08-.28h0a.66.66,0,0,1-.29.25.79.79,0,0,1-.37.07.57.57,0,0,1-.63-.61A.54.54,0,0,1,5.44,10a1.38,1.38,0,0,1,.7-.17h.35V9.71a.39.39,0,0,0-.09-.28.36.36,0,0,0-.28-.1,1,1,0,0,0-.3.05l-.27.1-.13-.3A1.51,1.51,0,0,1,6.14,9a.86.86,0,0,1,.57.16.68.68,0,0,1,.2.53V11ZM6,10.75a.49.49,0,0,0,.37-.13.43.43,0,0,0,.14-.36v-.17H6.23a.92.92,0,0,0-.44.1.31.31,0,0,0-.14.27.29.29,0,0,0,.08.21A.34.34,0,0,0,6,10.75Z"/><path class="cls-1" d="M9.19,9v.24l-.34.06a.48.48,0,0,1,.07.16.58.58,0,0,1,0,.19.61.61,0,0,1-.21.49.88.88,0,0,1-.59.17H8c-.09.06-.14.12-.14.2a.1.1,0,0,0,.07.1.55.55,0,0,0,.23,0h.35a.73.73,0,0,1,.5.14.48.48,0,0,1,.18.4.62.62,0,0,1-.28.53,1.52,1.52,0,0,1-.81.18,1.2,1.2,0,0,1-.63-.14.51.51,0,0,1-.1-.73.65.65,0,0,1,.33-.17.35.35,0,0,1-.2-.29.29.29,0,0,1,.07-.18.52.52,0,0,1,.19-.16A.55.55,0,0,1,7.48,10a.65.65,0,0,1-.09-.35.64.64,0,0,1,.2-.5A.87.87,0,0,1,8.18,9h.18l.13,0ZM7.62,11.35a.24.24,0,0,0,.12.21.67.67,0,0,0,.35.08,1,1,0,0,0,.52-.1.3.3,0,0,0,.17-.26.21.21,0,0,0-.1-.19A.71.71,0,0,0,8.34,11H8a.45.45,0,0,0-.29.08A.29.29,0,0,0,7.62,11.35ZM7.8,9.69a.38.38,0,0,0,.1.29.33.33,0,0,0,.27.1c.25,0,.37-.13.37-.39a.45.45,0,0,0-.09-.3.35.35,0,0,0-.28-.11.38.38,0,0,0-.28.11A.45.45,0,0,0,7.8,9.69Z"/><path class="cls-1" d="M10.43,11.08a1,1,0,0,1-.73-.27,1.05,1.05,0,0,1-.26-.75,1.13,1.13,0,0,1,.24-.77.94.94,0,0,1,1.3,0,.93.93,0,0,1,.23.66v.23H9.88a.64.64,0,0,0,.15.45.57.57,0,0,0,.42.15,1.69,1.69,0,0,0,.33,0,1.82,1.82,0,0,0,.33-.11v.34a1.35,1.35,0,0,1-.32.11A1.86,1.86,0,0,1,10.43,11.08Zm-.08-1.75a.41.41,0,0,0-.32.13.63.63,0,0,0-.15.37h.91a.51.51,0,0,0-.12-.37A.39.39,0,0,0,10.35,9.33Z"/></g></g></svg>