<svg xmlns="http://www.w3.org/2000/svg" viewBox="0 0 13.05 16"><defs><style>.cls-1{fill:#6d6d71;}</style></defs><title>pdf.ico</title><g id="Layer_2" data-name="Layer 2"><g id="Layer_1-2" data-name="Layer 1"><path class="cls-1" d="M9.73,0H1.35A1.35,1.35,0,0,0,0,1.35v13.3A1.35,1.35,0,0,0,1.35,16H11.69A1.35,1.35,0,0,0,13,14.65V3.31ZM1.22,14.78V1.22H8.87v3h3v10.6Z"/><path class="cls-1" d="M3.79,11.09A.88.88,0,0,1,3,10.74H3c0,.21,0,.34,0,.39v1H2.51V8.52h.43L3,8.86H3a.84.84,0,0,1,.75-.38.87.87,0,0,1,.73.34,1.54,1.54,0,0,1,.26,1,1.54,1.54,0,0,1-.27,1A.88.88,0,0,1,3.79,11.09ZM3.66,8.91a.55.55,0,0,0-.47.19A1,1,0,0,0,3,9.7v.08a1.18,1.18,0,0,0,.15.67.54.54,0,0,0,.48.21.48.48,0,0,0,.43-.23,1.18,1.18,0,0,0,.15-.65,1.13,1.13,0,0,0-.15-.64A.5.5,0,0,0,3.66,8.91Z"/><path class="cls-1" d="M6.27,11.09a.88.88,0,0,1-.74-.34,1.54,1.54,0,0,1-.26-1,1.54,1.54,0,0,1,.27-1,.89.89,0,0,1,.74-.34A.87.87,0,0,1,7,8.84h0a3.21,3.21,0,0,1,0-.43V7.5h.54V11H7.14L7,10.71H7A.86.86,0,0,1,6.27,11.09Zm.14-.43a.58.58,0,0,0,.48-.19A1,1,0,0,0,7,9.87V9.79a1.13,1.13,0,0,0-.16-.68.57.57,0,0,0-.49-.2A.49.49,0,0,0,6,9.14a1.18,1.18,0,0,0-.15.65,1.14,1.14,0,0,0,.15.64A.5.5,0,0,0,6.41,10.65Z"/><path class="cls-1" d="M9.59,8.93H9V11H8.44V8.93H8V8.68l.42-.16V8.35a.92.92,0,0,1,.21-.66.86.86,0,0,1,.64-.21,1.73,1.73,0,0,1,.56.09L9.7,8a1.22,1.22,0,0,0-.38-.06A.31.31,0,0,0,9.06,8,.57.57,0,0,0,9,8.36v.16h.62Z"/><path class="cls-1" d="M9.94,10.76A.35.35,0,0,1,10,10.5a.4.4,0,0,1,.5,0,.35.35,0,0,1,.09.25.36.36,0,0,1-.09.26.33.33,0,0,1-.25.09A.32.32,0,0,1,10,11,.37.37,0,0,1,9.94,10.76Z"/></g></g></svg>