<svg xmlns="http://www.w3.org/2000/svg" viewBox="0 0 13.05 16"><defs><style>.cls-1{fill:#6d6d71;}</style></defs><title>ppt-ico</title><g id="Layer_2" data-name="Layer 2"><g id="Layer_1-2" data-name="Layer 1"><path class="cls-1" d="M9.73,0H1.35A1.35,1.35,0,0,0,0,1.35v13.3A1.35,1.35,0,0,0,1.35,16H11.69A1.35,1.35,0,0,0,13,14.65V3.31ZM1.22,14.78V1.22H8.87v3h3v10.6Z"/><path class="cls-1" d="M3.72,11.09A.88.88,0,0,1,3,10.74h0c0,.21,0,.34,0,.39v1H2.44V8.52h.43l.08.34H3a.84.84,0,0,1,.75-.38.87.87,0,0,1,.73.34,1.54,1.54,0,0,1,.26,1,1.54,1.54,0,0,1-.27,1A.88.88,0,0,1,3.72,11.09ZM3.59,8.91a.55.55,0,0,0-.47.19A1,1,0,0,0,3,9.7v.08a1.18,1.18,0,0,0,.15.67.54.54,0,0,0,.48.21A.48.48,0,0,0,4,10.42a1.18,1.18,0,0,0,.15-.65A1.13,1.13,0,0,0,4,9.13.5.5,0,0,0,3.59,8.91Z"/><path class="cls-1" d="M6.63,11.09a.88.88,0,0,1-.74-.34h0c0,.21,0,.34,0,.39v1H5.35V8.52h.43l.08.34h0a.84.84,0,0,1,.75-.38.87.87,0,0,1,.73.34,1.54,1.54,0,0,1,.26,1,1.54,1.54,0,0,1-.27,1A.88.88,0,0,1,6.63,11.09ZM6.5,8.91A.55.55,0,0,0,6,9.1a1,1,0,0,0-.15.6v.08a1.18,1.18,0,0,0,.15.67.54.54,0,0,0,.48.21.48.48,0,0,0,.43-.23,1.18,1.18,0,0,0,.15-.65,1.13,1.13,0,0,0-.15-.64A.5.5,0,0,0,6.5,8.91Z"/><path class="cls-1" d="M9.19,10.65a1.3,1.3,0,0,0,.39-.06V11l-.23.07-.29,0q-.76,0-.76-.8V8.93H8V8.69l.37-.2L8.51,8h.33v.56h.72v.41H8.84v1.35a.38.38,0,0,0,.1.29A.35.35,0,0,0,9.19,10.65Z"/><path class="cls-1" d="M10,10.76a.35.35,0,0,1,.09-.25.4.4,0,0,1,.5,0,.35.35,0,0,1,.09.25.36.36,0,0,1-.09.26.33.33,0,0,1-.25.09A.32.32,0,0,1,10.1,11,.37.37,0,0,1,10,10.76Z"/></g></g></svg>