<svg xmlns="http://www.w3.org/2000/svg" viewBox="0 0 13.05 16"><defs><style>.cls-1{fill:#6d6d71;}</style></defs><title>pptx-ico</title><g id="Layer_2" data-name="Layer 2"><g id="Layer_1-2" data-name="Layer 1"><path class="cls-1" d="M9.73,0H1.35A1.35,1.35,0,0,0,0,1.35v13.3A1.35,1.35,0,0,0,1.35,16H11.69A1.35,1.35,0,0,0,13,14.65V3.31ZM1.22,14.78V1.22H8.87v3h3v10.6Z"/><path class="cls-1" d="M3.28,11.08a.7.7,0,0,1-.59-.27h0c0,.17,0,.27,0,.31v.82H2.27V9h.34l.06.27h0a.66.66,0,0,1,.6-.3.69.69,0,0,1,.58.27,1.22,1.22,0,0,1,.21.76,1.23,1.23,0,0,1-.21.76A.7.7,0,0,1,3.28,11.08Zm-.1-1.72a.44.44,0,0,0-.37.15.77.77,0,0,0-.12.47V10a.93.93,0,0,0,.12.53.43.43,0,0,0,.38.16.38.38,0,0,0,.34-.18A.93.93,0,0,0,3.64,10a.9.9,0,0,0-.12-.51A.39.39,0,0,0,3.18,9.35Z"/><path class="cls-1" d="M5.58,11.08A.7.7,0,0,1,5,10.81H5c0,.17,0,.27,0,.31v.82H4.57V9h.34L5,9.31H5a.66.66,0,0,1,.6-.3.69.69,0,0,1,.58.27,1.22,1.22,0,0,1,.21.76,1.23,1.23,0,0,1-.21.76A.7.7,0,0,1,5.58,11.08Zm-.1-1.72a.44.44,0,0,0-.37.15A.77.77,0,0,0,5,10V10a.93.93,0,0,0,.12.53.43.43,0,0,0,.38.16.38.38,0,0,0,.34-.18A.93.93,0,0,0,5.95,10a.9.9,0,0,0-.12-.51A.39.39,0,0,0,5.48,9.35Z"/><path class="cls-1" d="M7.62,10.74a1,1,0,0,0,.31,0V11l-.18.05-.23,0q-.6,0-.6-.64V9.37H6.64V9.18L6.94,9l.14-.42h.26V9h.57v.32H7.34v1.07a.3.3,0,0,0,.08.23A.28.28,0,0,0,7.62,10.74Z"/><path class="cls-1" d="M8.78,10,8.11,9h.48l.46.7L9.5,9H10l-.67,1L10,11H9.54L9,10.29,8.55,11H8.07Z"/><path class="cls-1" d="M10.31,10.82a.28.28,0,0,1,.07-.2.31.31,0,0,1,.4,0,.28.28,0,0,1,.07.2.29.29,0,0,1-.07.2.3.3,0,0,1-.4,0A.29.29,0,0,1,10.31,10.82Z"/></g></g></svg>