<svg xmlns="http://www.w3.org/2000/svg" viewBox="0 0 13.05 16"><defs><style>.cls-1{fill:#6d6d71;}</style></defs><title>xls-ico</title><g id="Layer_2" data-name="Layer 2"><g id="Layer_1-2" data-name="Layer 1"><path class="cls-1" d="M9.73,0H1.35A1.35,1.35,0,0,0,0,1.35v13.3A1.35,1.35,0,0,0,1.35,16H11.69A1.35,1.35,0,0,0,13,14.65V3.31ZM1.22,14.78V1.22H8.87v3h3v10.6Z"/><path class="cls-1" d="M3.75,9.76,2.91,8.52h.61l.57.88.58-.88h.61L4.43,9.76,5.32,11H4.71l-.62-.94L3.47,11H2.87Z"/><path class="cls-1" d="M6.3,11H5.76V7.5H6.3Z"/><path class="cls-1" d="M8.76,10.32a.66.66,0,0,1-.27.57,1.29,1.29,0,0,1-.77.2,1.81,1.81,0,0,1-.81-.15v-.46a2,2,0,0,0,.83.21q.49,0,.49-.3a.23.23,0,0,0-.05-.16A.64.64,0,0,0,8,10.09l-.35-.15a1.61,1.61,0,0,1-.59-.34.62.62,0,0,1-.15-.44.57.57,0,0,1,.26-.5,1.24,1.24,0,0,1,.71-.18,2,2,0,0,1,.84.18l-.17.4a1.87,1.87,0,0,0-.69-.17q-.42,0-.42.24a.24.24,0,0,0,.11.2A2.43,2.43,0,0,0,8,9.56a2.2,2.2,0,0,1,.45.22.61.61,0,0,1,.28.54Z"/><path class="cls-1" d="M9.26,10.76a.35.35,0,0,1,.09-.25.4.4,0,0,1,.5,0,.35.35,0,0,1,.09.25.36.36,0,0,1-.09.26.33.33,0,0,1-.25.09A.32.32,0,0,1,9.34,11,.37.37,0,0,1,9.26,10.76Z"/></g></g></svg>