<svg xmlns="http://www.w3.org/2000/svg" viewBox="0 0 13.05 16"><defs><style>.cls-1{fill:#6d6d71;}</style></defs><title>xlsx-ico</title><g id="Layer_2" data-name="Layer 2"><g id="Layer_1-2" data-name="Layer 1"><path class="cls-1" d="M9.73,0H1.35A1.35,1.35,0,0,0,0,1.35v13.3A1.35,1.35,0,0,0,1.35,16H11.69A1.35,1.35,0,0,0,13,14.65V3.31ZM1.22,14.78V1.22H8.87v3h3v10.6Z"/><path class="cls-1" d="M3.31,10,2.64,9h.48l.46.7L4,9h.48l-.67,1,.71,1H4.07l-.49-.75L3.09,11H2.6Z"/><path class="cls-1" d="M5.33,11H4.9V8.23h.42Z"/><path class="cls-1" d="M7.27,10.47a.52.52,0,0,1-.21.45,1,1,0,0,1-.61.16A1.44,1.44,0,0,1,5.81,11v-.37a1.59,1.59,0,0,0,.66.16q.39,0,.39-.24a.19.19,0,0,0,0-.13.52.52,0,0,0-.14-.1l-.28-.12a1.27,1.27,0,0,1-.47-.27.49.49,0,0,1-.12-.35A.46.46,0,0,1,6,9.15,1,1,0,0,1,6.58,9a1.6,1.6,0,0,1,.67.14l-.14.32a1.49,1.49,0,0,0-.54-.13c-.22,0-.34.06-.34.19a.19.19,0,0,0,.09.16,1.91,1.91,0,0,0,.38.18,1.74,1.74,0,0,1,.36.17.52.52,0,0,1,.17.18A.53.53,0,0,1,7.27,10.47Z"/><path class="cls-1" d="M8.18,10,7.51,9H8l.46.7L8.91,9h.48l-.67,1,.71,1H8.94l-.49-.75L8,11H7.48Z"/><path class="cls-1" d="M9.71,10.82a.28.28,0,0,1,.07-.2.31.31,0,0,1,.4,0,.28.28,0,0,1,.07.2.29.29,0,0,1-.07.2.3.3,0,0,1-.4,0A.29.29,0,0,1,9.71,10.82Z"/></g></g></svg>